<?xml version="1.0" encoding="UTF-8"?>
<svg width="30px" height="30px" viewBox="0 0 30 30" version="1.1" xmlns="http://www.w3.org/2000/svg" xmlns:xlink="http://www.w3.org/1999/xlink">
    <!-- Generator: Sketch 42 (36781) - http://www.bohemiancoding.com/sketch -->
    <title>Lock Copy 37</title>
    <desc>Created with Sketch.</desc>
    <defs></defs>
    <g id="Symbols" stroke="none" stroke-width="1" fill="none" fill-rule="evenodd">
        <g id="Nav/Locked" transform="translate(-15.000000, -14.000000)">
            <g id="Group-13-Copy-8">
                <g id="Lock-Copy-37" transform="translate(15.000000, 14.000000)">
                    <g id="Group-4-Copy" transform="translate(15.000000, 15.000000) rotate(180.000000) translate(-15.000000, -15.000000) " fill="#A0A0A0">
                        <ellipse id="Oval-3-Copy-2" cx="15" cy="15" rx="15" ry="15"></ellipse>
                    </g>
                    <g id="Lock-Copy-2" transform="translate(7.666667, 5.333333)" fill="#222222">
                        <g id="Layer_1">
                            <path d="M13.1157429,17.704022 L1.46734286,17.704022 C0.663,17.704022 0.0116571429,17.0541758 0.0116571429,16.2527473 L0.0116571429,8.99564835 C0.0116571429,8.19421978 0.663728571,7.54364835 1.46734286,7.54364835 L2.19518571,7.54364835 L2.19518571,5.3670989 C2.19518571,2.56173626 4.47707143,0.287274725 7.29154286,0.287274725 C10.1060143,0.287274725 12.3879,2.56173626 12.3879,5.3670989 L12.3879,7.54364835 L13.1157429,7.54364835 C13.9200857,7.54364835 14.5714286,8.19349451 14.5714286,8.99564835 L14.5714286,16.2527473 C14.5714286,17.0534505 13.9193571,17.704022 13.1157429,17.704022 Z M10.2036429,5.3670989 C10.2036429,3.76424176 8.8995,2.46454945 7.29154286,2.46454945 C5.68358571,2.46454945 4.37944286,3.76424176 4.37944286,5.3670989 L4.37944286,7.54364835 L10.2036429,7.54364835 L10.2036429,5.3670989 Z" id="Shape"></path>
                        </g>
                    </g>
                </g>
            </g>
        </g>
    </g>
</svg>