<svg width="21" height="15" viewBox="0 0 21 15" version="1.1" xmlns="http://www.w3.org/2000/svg" xmlns:xlink="http://www.w3.org/1999/xlink">
<title>Eye icon</title>
<desc>Created using Figma</desc>
<g id="Canvas" transform="translate(21411 2358)">
<g id="Eye icon">
<g id="Shape">
<use xlink:href="#path0_fill" transform="translate(-21410.7 -2358)" fill="#0093C0"/>
</g>
</g>
</g>
<defs>
<path id="path0_fill" fill-rule="evenodd" d="M 9.83695 0C 3.33713 0 0 7.14286 0 7.14286C 0 7.14286 2.5182 14.2857 9.83695 14.2857C 16.4645 14.2857 19.6731 7.17054 19.6731 7.17054C 19.6731 7.17054 16.4391 0 9.83695 0ZM 9.85245 11.607C 7.47592 11.607 5.75781 9.65347 5.75781 7.14275C 5.75781 4.63115 7.47592 2.67847 9.85245 2.67847C 12.229 2.67847 13.9471 4.63115 13.9471 7.14275C 13.9471 9.65347 12.229 11.607 9.85245 11.607ZM 9.85131 4.46436C 8.49353 4.46704 7.39453 5.70811 7.39453 7.14293C 7.39453 8.57686 8.49353 9.8215 9.85131 9.8215C 11.2091 9.8215 12.3081 8.57597 12.3081 7.14293C 12.3081 5.70722 11.2091 4.46168 9.85131 4.46436Z"/>
</defs>
</svg>
