<svg width="25" height="25" viewBox="0 0 25 25" version="1.1" xmlns="http://www.w3.org/2000/svg" xmlns:xlink="http://www.w3.org/1999/xlink">
<title>TICK - solid</title>
<desc>Created using Figma</desc>
<g id="Canvas" transform="translate(22388 2796)">
<g id="TICK - solid">
<g id="Tick solid">
<g id="Round background">
<g id="Oval 3 Copy 2">
<use xlink:href="#path0_fill" transform="matrix(-1 1.22465e-16 -1.22465e-16 -1 -22364 -2772)" fill="#6CAD58"/>
<use xlink:href="#path1_stroke" transform="matrix(-1 1.22465e-16 -1.22465e-16 -1 -22364 -2772)" fill="#6CAD58"/>
</g>
</g>
<g id="Tick only">
<g id="Shape">
<use xlink:href="#path2_fill" transform="translate(-22383.1 -2788.77)" fill="#FFFFFF"/>
</g>
</g>
</g>
</g>
</g>
<defs>
<path id="path0_fill" fill-rule="evenodd" d="M 11.5 23C 17.8513 23 23 17.8513 23 11.5C 23 5.14873 17.8513 0 11.5 0C 5.14873 0 0 5.14873 0 11.5C 0 17.8513 5.14873 23 11.5 23Z"/>
<path id="path1_stroke" d="M 11.5 23.5C 18.1274 23.5 23.5 18.1274 23.5 11.5L 22.5 11.5C 22.5 17.5751 17.5751 22.5 11.5 22.5L 11.5 23.5ZM 23.5 11.5C 23.5 4.87258 18.1274 -0.5 11.5 -0.5L 11.5 0.5C 17.5751 0.5 22.5 5.42487 22.5 11.5L 23.5 11.5ZM 11.5 -0.5C 4.87258 -0.5 -0.5 4.87258 -0.5 11.5L 0.5 11.5C 0.5 5.42487 5.42487 0.5 11.5 0.5L 11.5 -0.5ZM -0.5 11.5C -0.5 18.1274 4.87258 23.5 11.5 23.5L 11.5 22.5C 5.42487 22.5 0.5 17.5751 0.5 11.5L -0.5 11.5Z"/>
<path id="path2_fill" fill-rule="evenodd" d="M 14.6835 1.01394L 14.0004 0.348679C 13.524 -0.115199 12.7523 -0.116403 12.2771 0.346138L 5.33791 7.10346L 2.76459 4.59766C 2.28958 4.13499 1.51795 4.13632 1.0413 4.60047L 0.358247 5.2656C -0.118269 5.72961 -0.119642 6.48099 0.355501 6.94366L 4.47236 10.9522C 4.71144 11.185 5.02523 11.3002 5.33888 11.2983C 5.65184 11.2998 5.96494 11.1844 6.20361 10.9519L 14.6863 2.69187C 15.1613 2.2292 15.1605 1.47809 14.6835 1.01394Z"/>
</defs>
</svg>
