<svg width="12" height="15" viewBox="0 0 12 15" version="1.1" xmlns="http://www.w3.org/2000/svg" xmlns:xlink="http://www.w3.org/1999/xlink">
<title>Lock only</title>
<desc>Created using Figma</desc>
<g id="Canvas" transform="translate(21410 2301)">
<g id="Lock only">
<g id="Shape">
<use xlink:href="#path0_fill" transform="translate(-21409.8 -2301)" fill="#A0A0A0"/>
</g>
</g>
</g>
<defs>
<path id="path0_fill" fill-rule="evenodd" d="M 10.1282 15L 1.12511 15C 0.503428 15 0 14.4403 0 13.7501L 0 7.5C 0 6.80978 0.503991 6.24948 1.12511 6.24948L 1.68767 6.24948L 1.68767 4.37495C 1.68767 1.95886 3.45135 0 5.62668 0C 7.80201 0 9.56569 1.95886 9.56569 4.37495L 9.56569 6.24948L 10.1282 6.24948C 10.7499 6.24948 11.2534 6.80915 11.2534 7.5L 11.2534 13.7501C 11.2534 14.4397 10.7494 15 10.1282 15ZM 7.87852 4.37497C 7.87852 2.99453 6.87054 1.87518 5.62774 1.87518C 4.38494 1.87518 3.37695 2.99453 3.37695 4.37497L 3.37695 6.24951L 7.87852 6.24951L 7.87852 4.37497Z"/>
</defs>
</svg>
