<?xml version="1.0" encoding="UTF-8"?>
<svg width="32px" height="32px" viewBox="0 0 32 32" version="1.1" xmlns="http://www.w3.org/2000/svg" xmlns:xlink="http://www.w3.org/1999/xlink">
    <!-- Generator: Sketch 42 (36781) - http://www.bohemiancoding.com/sketch -->
    <title>Eye Copy 19</title>
    <desc>Created with Sketch.</desc>
    <defs></defs>
    <g id="Symbols" stroke="none" stroke-width="1" fill="none" fill-rule="evenodd">
        <g id="Nav/Active" transform="translate(-14.000000, -13.000000)">
            <g id="Group-13-Copy-7">
                <g id="Eye-Copy-19" transform="translate(15.000000, 14.000000)">
                    <g id="Group-4-Copy-2" transform="translate(15.000000, 15.000000) rotate(180.000000) translate(-15.000000, -15.000000) " stroke="#0093C0" fill="#FFFFFF">
                        <ellipse id="Oval-3-Copy-2" cx="15" cy="15" rx="15" ry="15"></ellipse>
                    </g>
                    <g id="eye-copy-2" transform="translate(4.000000, 8.000000)" fill="#0093C0">
                        <g id="Layer_1">
                            <path d="M11,0 C3.75733786,0 0.0388235294,7.14285714 0.0388235294,7.14285714 C0.0388235294,7.14285714 2.844819,14.2857143 11,14.2857143 C18.3850151,14.2857143 21.960264,7.17053571 21.960264,7.17053571 C21.960264,7.17053571 18.356727,0 11,0 Z M11.0164253,11.6071429 C8.36829563,11.6071429 6.45383107,9.65357143 6.45383107,7.14285714 C6.45383107,4.63125 8.36829563,2.67857143 11.0164253,2.67857143 C13.6645551,2.67857143 15.5790196,4.63125 15.5790196,7.14285714 C15.5790196,9.65357143 13.6645551,11.6071429 11.0164253,11.6071429 Z M11.0164253,4.46428571 C9.50346908,4.46696429 8.27886878,5.70803571 8.27886878,7.14285714 C8.27886878,8.57678571 9.50346908,9.82142857 11.0164253,9.82142857 C12.5293816,9.82142857 13.7539819,8.57589286 13.7539819,7.14285714 C13.7539819,5.70714286 12.5293816,4.46160714 11.0164253,4.46428571 Z" id="Shape"></path>
                        </g>
                    </g>
                </g>
            </g>
        </g>
    </g>
</svg>