<svg width="25" height="25" viewBox="0 0 25 25" version="1.1" xmlns="http://www.w3.org/2000/svg" xmlns:xlink="http://www.w3.org/1999/xlink">
<title>EYE - solid</title>
<desc>Created using Figma</desc>
<g id="Canvas" transform="translate(22388 2723)">
<g id="EYE - solid">
<g id="Eye icon">
<g id="Group 4 Copy 2">
<g id="Oval 3 Copy 2">
<use xlink:href="#path0_fill" transform="matrix(-1 1.22465e-16 -1.22465e-16 -1 -22364 -2699)" fill="#0093C0"/>
<use xlink:href="#path1_stroke" transform="matrix(-1 1.22465e-16 -1.22465e-16 -1 -22364 -2699)" fill="#0093C0"/>
</g>
</g>
<g id="eye copy 2">
<g id="Layer_1">
<g id="Shape">
<use xlink:href="#path2_fill" transform="translate(-22383.9 -2715.87)" fill="#FFFFFF"/>
</g>
</g>
</g>
</g>
</g>
</g>
<defs>
<path id="path0_fill" fill-rule="evenodd" d="M 11.5 23C 17.8513 23 23 17.8513 23 11.5C 23 5.14873 17.8513 0 11.5 0C 5.14873 0 0 5.14873 0 11.5C 0 17.8513 5.14873 23 11.5 23Z"/>
<path id="path1_stroke" d="M 11.5 23.5C 18.1274 23.5 23.5 18.1274 23.5 11.5L 22.5 11.5C 22.5 17.5751 17.5751 22.5 11.5 22.5L 11.5 23.5ZM 23.5 11.5C 23.5 4.87258 18.1274 -0.5 11.5 -0.5L 11.5 0.5C 17.5751 0.5 22.5 5.42487 22.5 11.5L 23.5 11.5ZM 11.5 -0.5C 4.87258 -0.5 -0.5 4.87258 -0.5 11.5L 0.5 11.5C 0.5 5.42487 5.42487 0.5 11.5 0.5L 11.5 -0.5ZM -0.5 11.5C -0.5 18.1274 4.87258 23.5 11.5 23.5L 11.5 22.5C 5.42487 22.5 0.5 17.5751 0.5 11.5L -0.5 11.5Z"/>
<path id="path2_fill" fill-rule="evenodd" d="M 8.40357 0C 2.85086 0 0 5.47619 0 5.47619C 0 5.47619 2.15126 10.9524 8.40357 10.9524C 14.0654 10.9524 16.8064 5.49741 16.8064 5.49741C 16.8064 5.49741 14.0437 0 8.40357 0ZM 8.41596 8.89895C 6.38573 8.89895 4.91797 7.40121 4.91797 5.47633C 4.91797 3.55076 6.38573 2.05371 8.41596 2.05371C 10.4462 2.05371 11.9139 3.55076 11.9139 5.47633C 11.9139 7.40121 10.4462 8.89895 8.41596 8.89895ZM 8.4152 3.42261C 7.25527 3.42466 6.31641 4.37615 6.31641 5.47618C 6.31641 6.57553 7.25527 7.52975 8.4152 7.52975C 9.57513 7.52975 10.514 6.57484 10.514 5.47618C 10.514 4.37547 9.57513 3.42056 8.4152 3.42261Z"/>
</defs>
</svg>
