<?xml version="1.0" encoding="UTF-8"?>
<svg width="44px" height="44px" viewBox="0 0 44 44" version="1.1" xmlns="http://www.w3.org/2000/svg" xmlns:xlink="http://www.w3.org/1999/xlink">
    <!-- Generator: Sketch 42 (36781) - http://www.bohemiancoding.com/sketch -->
    <title>Home_Icon</title>
    <desc>Created with Sketch.</desc>
    <defs></defs>
    <g id="_Navigation" stroke="none" stroke-width="1" fill="none" fill-rule="evenodd">
        <g id="Desktop_Step1_Nav_Level1" transform="translate(-8.000000, -81.000000)">
            <g id="Nav/Level1" transform="translate(0.000000, 60.000000)">
                <g id="Home_Icon" transform="translate(9.000000, 22.000000)">
                    <g id="Group-4-Copy" transform="translate(21.000000, 21.000000) rotate(180.000000) translate(-21.000000, -21.000000) " stroke="#EE7548" fill="#FFFFFF">
                        <ellipse id="Oval-3-Copy-2" cx="21" cy="21" rx="21" ry="21"></ellipse>
                    </g>
                    <g id="1485806912_home" transform="translate(9.600000, 9.600000)" fill-rule="nonzero" fill="#EE7548">
                        <g id="Layer_1">
                            <path d="M22.01625,9.975 L19.95,7.910175 L19.95,2.85 C19.95,2.06625 19.30875,1.425 18.525,1.425 L17.1,1.425 C16.31625,1.425 15.675,2.06625 15.675,2.85 L15.675,3.638025 L12.825,0.790875 C12.435975,0.423225 12.079725,0 11.4,0 C10.720275,0 10.364025,0.423225 9.975,0.790875 L0.78375,9.975 C0.33915,10.438125 0,10.77585 0,11.4 C0,12.202275 0.6156,12.825 1.425,12.825 L2.85,12.825 L2.85,21.375 C2.85,22.15875 3.49125,22.8 4.275,22.8 L8.55,22.8 L8.55,15.675 C8.55,14.89125 9.19125,14.25 9.975,14.25 L12.825,14.25 C13.60875,14.25 14.25,14.89125 14.25,15.675 L14.25,22.8 L18.525,22.8 C19.30875,22.8 19.95,22.15875 19.95,21.375 L19.95,12.825 L21.375,12.825 C22.1844,12.825 22.8,12.202275 22.8,11.4 C22.8,10.77585 22.46085,10.438125 22.01625,9.975 Z" id="Shape"></path>
                        </g>
                    </g>
                </g>
            </g>
        </g>
    </g>
</svg>