<svg width="12" height="9" viewBox="0 0 12 9" version="1.1" xmlns="http://www.w3.org/2000/svg" xmlns:xlink="http://www.w3.org/1999/xlink">
<title>Video Icon</title>
<desc>Created using Figma</desc>
<g id="Canvas" transform="translate(21184 2474)">
<g id="Video Icon">
<g id="Group">
<g id="Vector">
<use xlink:href="#path0_fill" transform="translate(-21184 -2474)" fill="#FFFFFF"/>
</g>
</g>
</g>
</g>
<defs>
<path id="path0_fill" d="M 11.7388 0.24768C 11.6807 0.225398 11.6249 0.21421 11.5713 0.21421C 11.4508 0.21421 11.3504 0.256709 11.27 0.341474L 8.57133 3.03349L 8.57133 1.92859C 8.57133 1.39728 8.38271 0.943105 8.00546 0.56584C 7.6282 0.188621 7.17407 -8.58929e-08 6.64271 -8.58929e-08L 1.92852 -8.58929e-08C 1.39733 -8.58929e-08 0.943058 0.188621 0.565769 0.56584C 0.188621 0.943105 0 1.39728 0 1.92859L 0 6.64285C 0 7.17412 0.188621 7.62827 0.565793 8.00551C 0.943082 8.38275 1.39735 8.57137 1.92855 8.57137L 6.64276 8.57137C 7.1741 8.57137 7.62825 8.38275 8.00551 8.00551C 8.38275 7.62827 8.57137 7.17414 8.57137 6.64285L 8.57137 5.53118L 11.27 8.22988C 11.3505 8.31462 11.4508 8.35709 11.5714 8.35709C 11.625 8.35709 11.6808 8.34593 11.7388 8.3237C 11.913 8.24777 12 8.11612 12 7.92863L 12 0.642864C 11.9999 0.455275 11.9129 0.323602 11.7388 0.24768Z"/>
</defs>
</svg>
