<?xml version="1.0" encoding="UTF-8"?>
<svg width="214px" height="42px" viewBox="0 0 214 42" version="1.1" xmlns="http://www.w3.org/2000/svg" xmlns:xlink="http://www.w3.org/1999/xlink">
    <!-- Generator: Sketch 43.1 (39012) - http://www.bohemiancoding.com/sketch -->
    <title>Logo</title>
    <desc>Created with Sketch.</desc>
    <defs>
        <polygon id="path-1" points="0.0118470914 16.8888889 16.5874537 16.8888889 16.5874537 0.158 0.0118470914 0.158 0.0118470914 16.8888889"></polygon>
        <polygon id="path-3" points="0.312960665 16.8888889 15.3704343 16.8888889 15.3704343 0.1588 0.312960665 0.1588 0.312960665 16.8888889"></polygon>
    </defs>
    <g id="_Typography" stroke="none" stroke-width="1" fill="none" fill-rule="evenodd">
        <g id="typography_mobile-and-desktop" transform="translate(-750.000000, -565.000000)">
            <g id="PL-Header_Desktop-Copy" transform="translate(741.000000, 556.000000)">
                <g id="Logo" transform="translate(9.000000, 9.000000)">
                    <g id="Potentialife-Copy" transform="translate(52.000000, 8.000000)">
                        <path d="M7.71864931,13.3153333 C8.75167978,13.3153333 9.69047202,13.1904444 10.5336798,12.9371111 C11.3773363,12.6855556 12.0998294,12.3237778 12.701159,11.8504444 C13.3020399,11.3775556 13.7709873,10.8055556 14.1088986,10.1322222 C14.4454637,9.46066667 14.6146438,8.71444444 14.6146438,7.89577778 L14.6146438,7.83266667 C14.6146438,6.95044444 14.4512975,6.178 14.1241562,5.51666667 C13.797015,4.854 13.3383889,4.30377778 12.7482781,3.86155556 C12.1577186,3.42066667 11.4513806,3.08422222 10.6288155,2.85311111 C9.80625042,2.622 8.89931967,2.50688889 7.90847202,2.50688889 L1.64477119,2.50688889 L1.64477119,13.3153333 L7.71864931,13.3153333 Z M8.97506925e-05,1.03444444 L8.0350205,1.03444444 C9.25787368,1.03444444 10.3703335,1.18555556 11.3724,1.48866667 C12.3740177,1.79133333 13.2387657,2.23044444 13.966195,2.80466667 C14.6936244,3.37933333 15.2577075,4.07844444 15.6584443,4.90333333 C16.0587324,5.72911111 16.259774,6.674 16.259774,7.73888889 L16.259774,7.80111111 C16.259774,8.95088889 16.0273197,9.96333333 15.5637573,10.8411111 C15.0997463,11.7175556 14.4723889,12.4495556 13.6816853,13.0331111 C12.890533,13.6188889 11.9732809,14.0575556 10.9294803,14.3491111 C9.88567978,14.642 8.78354127,14.7877778 7.62396233,14.7877778 L1.64477119,14.7877778 L1.64477119,22.9655556 L8.97506925e-05,22.9655556 L8.97506925e-05,1.03444444 Z" id="Fill-1" fill="#8C8D8F"></path>
                        <g id="Group-5" transform="translate(17.501385, 6.452489)">
                            <mask id="mask-2" fill="white">
                                <use xlink:href="#path-1"></use>
                            </mask>
                            <g id="Clip-4"></g>
                            <path d="M8.33128753,15.4166667 C9.28488864,15.4166667 10.1693817,15.2348889 10.9856643,14.8704444 C11.8010493,14.5064444 12.500656,14.0184444 13.083138,13.4051111 C13.6660687,12.7917778 14.1215535,12.0691111 14.450041,11.2375556 C14.7780798,10.4055556 14.9427723,9.52155556 14.9427723,8.586 L14.9427723,8.52333333 C14.9427723,7.56733333 14.7731435,6.66733333 14.4343346,5.82555556 C14.095077,4.98377778 13.6234371,4.25044444 13.019415,3.62777778 C12.4153928,3.00377778 11.7059136,2.51488889 10.8900798,2.16155556 C10.074246,1.80777778 9.20052299,1.63088889 8.2680133,1.63088889 C7.31396343,1.63088889 6.42947036,1.81355556 5.61363657,2.17666667 C4.79780277,2.54111111 4.09819612,3.02955556 3.51571413,3.64333333 C2.93278338,4.25666667 2.47729861,4.97888889 2.14925983,5.81088889 C1.8207723,6.64244444 1.65652853,7.52555556 1.65652853,8.462 L1.65652853,8.52333333 C1.65652853,9.48022222 1.82615734,10.3797778 2.16541496,11.2215556 C2.50422382,12.0637778 2.97541496,12.7962222 3.57943712,13.4206667 C4.18345928,14.0437778 4.8929385,14.5331111 5.70922105,14.8864444 C6.52460609,15.2402222 7.39877784,15.4166667 8.33128753,15.4166667 M8.2680133,16.8891111 C7.06625152,16.8891111 5.96366427,16.6646667 4.96249529,16.2153333 C3.96042881,15.766 3.09029584,15.166 2.35254515,14.4135556 C1.61389695,13.662 1.03994127,12.7842222 0.628434349,11.7815556 C0.217376177,10.7788889 0.0118470914,9.71444444 0.0118470914,8.58644444 L0.0118470914,8.52333333 C0.0118470914,7.39533333 0.217376177,6.33088889 0.628434349,5.32822222 C1.03994127,4.32511111 1.61973075,3.43755556 2.36825152,2.66511111 C3.1167723,1.89266667 3.99767535,1.28155556 5.01006316,0.832222222 C6.02200222,0.383333333 7.12952576,0.158 8.33128753,0.158 C9.53349806,0.158 10.6351878,0.383333333 11.6368055,0.832222222 C12.6384233,1.28155556 13.5081075,1.88155556 14.2467557,2.63355556 C14.9845064,3.38555556 15.5593596,4.26288889 15.9708665,5.26555556 C16.3819247,6.26822222 16.5874537,7.33355556 16.5874537,8.46155556 L16.5874537,8.52333333 C16.5874537,9.65133333 16.3819247,10.7171111 15.9708665,11.7197778 C15.5593596,12.722 14.9791213,13.61 14.2306006,14.3824444 C13.4820798,15.1548889 12.6016255,15.766 11.5896864,16.2153333 C10.5772986,16.6646667 9.47022382,16.8891111 8.2680133,16.8891111" id="Fill-3" fill="#8C8D8F" mask="url(#mask-2)"></path>
                        </g>
                        <path d="M42.9780166,23.2467556 C42.3452742,23.2467556 41.7547147,23.1636444 41.206338,22.9969778 C40.6579612,22.8298667 40.1786925,22.5636444 39.7671856,22.1978667 C39.3561274,21.8320889 39.0339224,21.3725333 38.8023657,20.8192 C38.5699114,20.2663111 38.454133,19.6125333 38.454133,18.8614222 L38.454133,8.39653333 L36.1138837,8.39653333 L36.1138837,6.9872 L38.454133,6.9872 L38.454133,1.88008889 L40.0045762,1.88008889 L40.0045762,6.9872 L45.6669474,6.9872 L45.6669474,8.39653333 L40.0045762,8.39653333 L40.0045762,18.6805333 C40.0045762,19.8272 40.3047922,20.6289778 40.9061219,21.0880889 C41.5070028,21.5458667 42.282,21.7743111 43.2311136,21.7743111 C43.6314017,21.7743111 44.0110471,21.7360889 44.3700499,21.6565333 C44.7281551,21.5769778 45.1392133,21.4396444 45.6036731,21.2418667 L45.6036731,22.6832 C45.1813961,22.8707556 44.7654017,23.0125333 44.3538947,23.1067556 C43.9428366,23.2005333 43.4842105,23.2467556 42.9780166,23.2467556" id="Fill-6" fill="#8C8D8F"></path>
                        <g id="Group-10" transform="translate(47.567867, 6.452489)">
                            <mask id="mask-4" fill="white">
                                <use xlink:href="#path-3"></use>
                            </mask>
                            <g id="Clip-9"></g>
                            <path d="M13.7253042,7.77168889 C13.6615812,6.95702222 13.4977861,6.17968889 13.2334704,5.43791111 C12.9691546,4.69702222 12.598933,4.0388 12.123703,3.46413333 C11.6475756,2.88991111 11.0610548,2.42946667 10.3627945,2.08546667 C9.66498283,1.74102222 8.85094404,1.56813333 7.92067812,1.56813333 C7.11696066,1.56813333 6.36709363,1.72502222 5.66883324,2.0388 C4.97102161,2.35213333 4.36296066,2.78546667 3.84509917,3.33835556 C3.32723767,3.89213333 2.89867812,4.54991111 2.56076676,5.31257778 C2.22240665,6.07524444 2.02091634,6.89435556 1.95809086,7.77168889 L13.7253042,7.77168889 Z M8.23974183,16.8890222 C7.18292742,16.8890222 6.17368089,16.6894667 5.21155346,16.2939111 C4.24987479,15.8965778 3.40397452,15.3334667 2.67475014,14.6014667 C1.94552576,13.8712444 1.36977507,12.9939111 0.947049307,11.9694667 C0.524323546,10.9472444 0.312960665,9.80813333 0.312960665,8.55568889 L0.312960665,8.49213333 C0.312960665,7.34368889 0.507719668,6.26235556 0.89813518,5.24991111 C1.28810194,4.23657778 1.82570859,3.35435556 2.51140388,2.60235556 C3.19665042,1.85035556 4.00306039,1.2548 4.9315313,0.817022222 C5.85910471,0.378355556 6.87149252,0.1588 7.96824598,0.1588 C9.10673352,0.1588 10.1298914,0.373022222 11.0368222,0.800577778 C11.9433042,1.22857778 12.7183014,1.8188 13.3613651,2.57035556 C14.0048776,3.3228 14.5007501,4.20591111 14.8485341,5.21791111 C15.196318,6.23124444 15.3704343,7.33346667 15.3704343,8.52324444 L15.3704343,8.85302222 C15.3704343,8.92635556 15.3596643,9.02457778 15.3390216,9.1508 L1.95809086,9.1508 C2.02091634,10.1481333 2.24394681,11.0316889 2.624041,11.7996889 C3.00458393,12.5694667 3.4802626,13.2236889 4.05107701,13.7636889 C4.62189141,14.3041333 5.27258393,14.7156889 6.00225706,14.9961333 C6.73148144,15.2765778 7.4975036,15.4161333 8.30166981,15.4161333 C9.56984709,15.4161333 10.6428166,15.1756889 11.5205784,14.6952444 C12.3983402,14.2156889 13.1751324,13.6196889 13.8518526,12.9103556 L14.9275147,13.8503556 C14.1049496,14.7263556 13.1701961,15.4525778 12.123703,16.0268 C11.07721,16.6010222 9.78255623,16.8890222 8.23974183,16.8890222 L8.23974183,16.8890222 Z" id="Fill-8" fill="#8C8D8F" mask="url(#mask-4)"></path>
                        </g>
                        <path d="M66.8289939,6.98675556 L68.3789884,6.98675556 L68.3789884,9.9632 C68.9273651,9.0232 69.6651158,8.22986667 70.5935867,7.58231111 C71.5211601,6.9352 72.7233706,6.61075556 74.1997695,6.61075556 C75.2121573,6.61075556 76.1181906,6.77297778 76.920113,7.09653333 C77.721138,7.42097778 78.4014482,7.87475556 78.960595,8.45964444 C79.5188443,9.04408889 79.9411213,9.73875556 80.2260798,10.5427556 C80.5101407,11.3472 80.6532931,12.2298667 80.6532931,13.1903111 L80.6532931,22.9654222 L79.1028499,22.9654222 L79.1028499,13.4720889 C79.1028499,11.8227556 78.6599302,10.5014222 77.7745396,9.50897778 C76.8882515,8.51697778 75.6232155,8.02097778 73.9785341,8.02097778 C73.1766116,8.02097778 72.4384122,8.16186667 71.7639357,8.44364444 C71.0885618,8.72586667 70.4988997,9.11742222 69.9927058,9.61875556 C69.4865119,10.1200889 69.0907114,10.7205333 68.8062017,11.4200889 C68.5212432,12.1200889 68.3789884,12.8876444 68.3789884,13.7232 L68.3789884,22.9654222 L66.8289939,22.9654222 L66.8289939,6.98675556 Z" id="Fill-11" fill="#8C8D8F"></path>
                        <path d="M90.3324565,23.2467556 C89.6997141,23.2467556 89.1087058,23.1636444 88.5607778,22.9969778 C88.0124011,22.8298667 87.5331324,22.5636444 87.1216255,22.1978667 C86.7105673,21.8320889 86.3883623,21.3725333 86.1563568,20.8192 C85.9243512,20.2663111 85.8085729,19.6125333 85.8085729,18.8614222 L85.8085729,8.39653333 L83.4678748,8.39653333 L83.4678748,6.9872 L85.8085729,6.9872 L85.8085729,1.88008889 L87.3585673,1.88008889 L87.3585673,6.9872 L93.0209385,6.9872 L93.0209385,8.39653333 L87.3585673,8.39653333 L87.3585673,18.6805333 C87.3585673,19.8272 87.6592321,20.6289778 88.2605618,21.0880889 C88.8614427,21.5458667 89.6364399,21.7743111 90.5851047,21.7743111 C90.9858416,21.7743111 91.365487,21.7360889 91.7244898,21.6565333 C92.0821463,21.5769778 92.4936532,21.4396444 92.958113,21.2418667 L92.958113,22.6832 C92.535836,22.8707556 92.1193928,23.0125333 91.7083346,23.1067556 C91.2968277,23.2005333 90.8386504,23.2467556 90.3324565,23.2467556" id="Fill-13" fill="#8C8D8F"></path>
                        <path d="M97.19641,22.9653778 L98.7464044,22.9653778 L98.7464044,6.98671111 L97.19641,6.98671111 L97.19641,22.9653778 Z M97.0065873,2.8196 L98.9362271,2.8196 L98.9362271,0.720933333 L97.0065873,0.720933333 L97.0065873,2.8196 Z" id="Fill-15" fill="#8C8D8F"></path>
                        <path d="M109.217348,21.8691556 C110.039465,21.8691556 110.819398,21.7487111 111.558047,21.5096 C112.295797,21.2709333 112.944695,20.9376 113.503393,20.5113778 C114.062091,20.0851556 114.504562,19.5700444 114.832152,18.9678222 C115.158844,18.3638222 115.322191,17.6984889 115.322191,16.9709333 L115.322191,15.1607111 C114.647265,14.9944889 113.856562,14.8336 112.949631,14.6771556 C112.0427,14.5220444 111.009221,14.4438222 109.849642,14.4438222 C108.141686,14.4438222 106.828634,14.7820444 105.911382,15.4576 C104.99413,16.1344889 104.535055,17.0327111 104.535055,18.1562667 L104.535055,18.2180444 C104.535055,18.8011556 104.662052,19.3162667 104.915149,19.7629333 C105.168246,20.2104889 105.510645,20.5891556 105.943243,20.9011556 C106.374944,21.2131556 106.876202,21.4527111 107.44567,21.6193778 C108.015138,21.7860444 108.605249,21.8691556 109.217348,21.8691556 M109.122213,23.3416 C108.363371,23.3416 107.614401,23.2362667 106.876202,23.0278222 C106.138002,22.8198222 105.473398,22.5064889 104.883288,22.0878222 C104.292728,21.6709333 103.812562,21.1482667 103.444135,20.5220444 C103.074811,19.8953778 102.890373,19.1642667 102.890373,18.3278222 L102.890373,18.2664889 C102.890373,17.4309333 103.06449,16.6896 103.412274,16.0416 C103.760506,15.3944889 104.239775,14.8509333 104.851426,14.4127111 C105.463077,13.9731556 106.200828,13.6393778 107.066024,13.4096 C107.930772,13.1798222 108.890207,13.0642667 109.944778,13.0642667 C111.083265,13.0642667 112.06424,13.1278222 112.886806,13.2527111 C113.708922,13.3784889 114.510396,13.5451556 115.290329,13.7540444 L115.290329,13.0687111 C115.290329,11.4491556 114.820933,10.2344889 113.882589,9.42426667 C112.944695,8.61448889 111.641963,8.20915556 109.976191,8.20915556 C108.984445,8.20915556 108.078412,8.3296 107.255847,8.5696 C106.433282,8.8096 105.6529,9.1176 104.915149,9.4936 L104.345681,8.14471111 C105.231071,7.71804444 106.127232,7.37671111 107.034612,7.12026667 C107.940645,6.86471111 108.953033,6.73671111 110.070878,6.73671111 C112.285476,6.73671111 113.982661,7.3216 115.164229,8.49048889 C116.260085,9.57715556 116.80936,11.0811556 116.80936,13.0024889 L116.80936,22.9656 L115.290329,22.9656 L115.290329,20.3029333 C115.016589,20.6780444 114.684512,21.0487111 114.294096,21.4149333 C113.903681,21.7807111 113.455825,22.1033778 112.949631,22.3860444 C112.443437,22.6678222 111.868584,22.8971556 111.225969,23.0749333 C110.582008,23.2518222 109.881055,23.3416 109.122213,23.3416" id="Fill-17" fill="#8C8D8F"></path>
                        <polygon id="Fill-18" fill="#8C8D8F" points="121.964909 22.9653778 123.515352 22.9653778 123.515352 0.0942666667 121.964909 0.0942666667"></polygon>
                        <path d="M129.208687,22.9653778 L130.758681,22.9653778 L130.758681,6.98671111 L129.208687,6.98671111 L129.208687,22.9653778 Z M129.018864,2.8196 L130.948504,2.8196 L130.948504,0.720933333 L129.018864,0.720933333 L129.018864,2.8196 Z" id="Fill-19" fill="#8C8D8F"></path>
                        <path d="M137.813131,8.39693333 L135.471984,8.39693333 L135.471984,6.98671111 L137.813131,6.98671111 L137.813131,5.42048889 C137.813131,3.58271111 138.287463,2.19337778 139.236577,1.25337778 C140.079784,0.418711111 141.207951,4.44444449e-05 142.621075,4.44444449e-05 C143.106178,4.44444449e-05 143.538776,0.0316 143.917973,0.0942666667 C144.297618,0.156933333 144.666045,0.251155556 145.025048,0.376044444 L145.025048,1.81737778 C144.561037,1.6716 144.149978,1.56715556 143.791424,1.50448889 C143.432422,1.44182222 143.042455,1.41026667 142.621075,1.41026667 C140.44866,1.41026667 139.362676,2.75782222 139.362676,5.45204444 L139.362676,6.98671111 L144.993635,6.98671111 L144.993635,8.39693333 L139.362676,8.39693333 L139.362676,22.9653778 L137.813131,22.9653778 L137.813131,8.39693333 Z" id="Fill-20" fill="#8C8D8F"></path>
                        <path d="M159.987834,14.2241778 C159.923663,13.4095111 159.759868,12.6321778 159.496001,11.8904 C159.231236,11.1495111 158.861014,10.4912889 158.385784,9.91662222 C157.909657,9.3424 157.323585,8.88195556 156.625325,8.53795556 C155.927064,8.19351111 155.113474,8.02062222 154.18276,8.02062222 C153.379042,8.02062222 152.629175,8.17751111 151.930915,8.49128889 C151.233103,8.80462222 150.625491,9.23795556 150.107181,9.79084444 C149.589319,10.3446222 149.16076,11.0024 148.822848,11.7650667 C148.484488,12.5277333 148.283447,13.3468444 148.220172,14.2241778 L159.987834,14.2241778 Z M154.501823,23.3415111 C153.445009,23.3415111 152.435762,23.1419556 151.473635,22.7464 C150.511956,22.3490667 149.666505,21.7859556 148.93728,21.0539556 C148.207607,20.3237333 147.632305,19.4464 147.209131,18.4219556 C146.786405,17.3997333 146.575042,16.2606222 146.575042,15.0081778 L146.575042,14.9446222 C146.575042,13.7961778 146.769801,12.7148444 147.160665,11.7024 C147.550183,10.6890667 148.08779,9.80684444 148.773934,9.05484444 C149.458732,8.30284444 150.265591,7.70728889 151.193613,7.26951111 C152.121635,6.83084444 153.134023,6.61128889 154.230327,6.61128889 C155.369264,6.61128889 156.391973,6.82551111 157.298904,7.25306667 C158.205386,7.68106667 158.980383,8.27128889 159.623895,9.02284444 C160.266959,9.77528889 160.762832,10.6584 161.110616,11.6704 C161.458399,12.6837333 161.632516,13.7859556 161.632516,14.9757333 L161.632516,15.3055111 C161.632516,15.3788444 161.622194,15.4770667 161.601103,15.6032889 L148.220172,15.6032889 C148.283447,16.6006222 148.506028,17.4841778 148.886571,18.2521778 C149.266665,19.0219556 149.742344,19.6761778 150.313158,20.2161778 C150.884422,20.7566222 151.534665,21.1681778 152.264339,21.4486222 C152.993563,21.7290667 153.760034,21.8686222 154.563751,21.8686222 C155.831929,21.8686222 156.905347,21.6281778 157.783109,21.1477333 C158.66087,20.6681778 159.437663,20.0721778 160.114383,19.3628444 L161.190045,20.3028444 C160.367031,21.1788444 159.432278,21.9050667 158.385784,22.4792889 C157.33974,23.0535111 156.045086,23.3415111 154.501823,23.3415111 L154.501823,23.3415111 Z" id="Fill-21" fill="#8C8D8F"></path>
                    </g>
                    <g id="PL_Logo-Copy">
                        <path d="M41.8422308,20.9208462 C41.8422308,32.4751538 32.4751538,41.8422308 20.9208462,41.8422308 C9.36653846,41.8422308 0,32.4751538 0,20.9208462 C0,9.36653846 9.36653846,0 20.9208462,0 C32.4751538,0 41.8422308,9.36653846 41.8422308,20.9208462 Z" id="Fill-1" fill="#EE7548"></path>
                        <path d="M6.74024615,28.1193231 L6.74024615,28.1193231 C5.7064,27.0844 5.7064,25.3930923 6.74024615,24.3587077 L20.9292462,10.1697077 C21.9630923,9.13586154 23.6554769,9.13586154 24.6893231,10.1697077 C25.7237077,11.2035538 25.7237077,12.8964769 24.6893231,13.9297846 L10.5008615,28.1193231 C9.46647692,29.1531692 7.77409231,29.1531692 6.74024615,28.1193231" id="Fill-3" fill="#FEFEFE"></path>
                        <path d="M17.1355692,28.1277769 L17.1183385,28.1105462 C16.0888,27.0815462 16.0888,25.3967 17.1183385,24.3677 L26.1106462,15.3743154 C27.1401846,14.3447769 28.8244923,14.3447769 29.8540308,15.3743154 L29.8712615,15.3920846 C30.9008,16.4216231 30.9008,18.1059308 29.8712615,19.1349308 L20.8789538,28.1277769 C19.8494154,29.1567769 18.1651077,29.1567769 17.1355692,28.1277769" id="Fill-5" fill="#FEFEFE"></path>
                        <path d="M27.6032615,28.1319769 L27.5774154,28.1055923 C26.5505692,27.0792846 26.5505692,25.3987462 27.5774154,24.3719 L31.3466462,20.6026692 C32.3734923,19.5747462 34.0545692,19.5747462 35.0814154,20.6026692 L35.1072615,20.6274385 C36.1346462,21.6553615 36.1346462,23.3359 35.1072615,24.3627462 L31.3380308,28.1319769 C30.3111846,29.1582846 28.6306462,29.1588231 27.6032615,28.1319769" id="Fill-7" fill="#FEFEFE"></path>
                    </g>
                </g>
            </g>
        </g>
    </g>
</svg>