<?xml version="1.0" encoding="UTF-8"?>
<svg width="453px" height="78px" viewBox="0 0 453 78" version="1.1" xmlns="http://www.w3.org/2000/svg" xmlns:xlink="http://www.w3.org/1999/xlink">
    <!-- Generator: Sketch 43.1 (39012) - http://www.bohemiancoding.com/sketch -->
    <title>PL_HZ_LOGO_PANTONE</title>
    <desc>Created with Sketch.</desc>
    <defs>
        <polygon id="path-1" points="38.8835 0.293 0.06 0.293 0.06 77.94 77.707 77.94 77.707 0.293"></polygon>
    </defs>
    <g id="Page-1" stroke="none" stroke-width="1" fill="none" fill-rule="evenodd">
        <g id="PL_HZ_LOGO_PANTONE">
            <g id="Group-3">
                <mask id="mask-2" fill="white">
                    <use xlink:href="#path-1"></use>
                </mask>
                <g id="Clip-2"></g>
                <path d="M77.707,39.147 C77.707,60.605 60.311,78 38.853,78 C17.395,78 0,60.605 0,39.147 C0,17.689 17.395,0.293 38.853,0.293 C60.311,0.293 77.707,17.689 77.707,39.147" id="Fill-1" fill="#E6764E" mask="url(#mask-2)"></path>
            </g>
            <path d="M12.517,52.515 L12.517,52.515 C10.597,50.594 10.597,47.451 12.517,45.53 L38.868,19.18 C40.789,17.259 43.931,17.259 45.852,19.18 C47.773,21.101 47.773,24.243 45.852,26.164 L19.501,52.515 C17.581,54.435 14.438,54.435 12.517,52.515" id="Fill-4" fill="#FFFFFF"></path>
            <path d="M31.823,52.53 L31.791,52.498 C29.879,50.587 29.879,47.458 31.791,45.547 L48.492,28.846 C50.403,26.935 53.531,26.935 55.443,28.846 L55.475,28.878 C57.387,30.79 57.387,33.919 55.475,35.83 L38.775,52.53 C36.863,54.442 33.735,54.442 31.823,52.53" id="Fill-5" fill="#FFFFFF"></path>
            <path d="M51.263,52.538 L51.215,52.49 C49.308,50.583 49.308,47.462 51.215,45.555 L58.215,38.555 C60.122,36.647 63.244,36.647 65.151,38.555 L65.199,38.603 C67.107,40.51 67.107,43.631 65.199,45.538 L58.199,52.538 C56.292,54.445 53.171,54.446 51.263,52.538" id="Fill-6" fill="#FFFFFF"></path>
            <path d="M109.077,41.834 C111.379,41.834 113.471,41.551 115.35,40.982 C117.23,40.416 118.84,39.601 120.179,38.537 C121.519,37.472 122.564,36.185 123.317,34.671 C124.067,33.159 124.444,31.482 124.444,29.638 L124.444,29.496 C124.444,27.511 124.08,25.774 123.351,24.285 C122.622,22.796 121.6,21.556 120.285,20.562 C118.969,19.57 117.395,18.813 115.562,18.294 C113.729,17.773 111.708,17.513 109.5,17.513 L95.542,17.513 L95.542,41.834 L109.077,41.834 Z M91.877,14.2 L109.782,14.2 C112.507,14.2 114.986,14.542 117.219,15.222 C119.45,15.904 121.378,16.891 122.999,18.183 C124.62,19.476 125.877,21.05 126.77,22.906 C127.662,24.763 128.11,26.889 128.11,29.285 L128.11,29.426 C128.11,32.012 127.592,34.291 126.559,36.265 C125.525,38.238 124.127,39.884 122.365,41.198 C120.602,42.515 118.558,43.502 116.232,44.159 C113.906,44.818 111.45,45.147 108.866,45.147 L95.542,45.147 L95.542,63.545 L91.877,63.545 L91.877,14.2 L91.877,14.2 Z" id="Fill-7" fill="#717576"></path>
            <path d="M149.442,61.078 C151.567,61.078 153.538,60.669 155.357,59.85 C157.174,59.031 158.733,57.932 160.032,56.552 C161.33,55.172 162.346,53.546 163.077,51.675 C163.808,49.803 164.175,47.815 164.175,45.709 L164.175,45.569 C164.175,43.417 163.797,41.394 163.042,39.5 C162.286,37.605 161.235,35.956 159.889,34.553 C158.543,33.149 156.962,32.049 155.144,31.254 C153.326,30.459 151.379,30.062 149.301,30.062 C147.176,30.062 145.204,30.471 143.387,31.289 C141.568,32.108 140.01,33.208 138.711,34.588 C137.412,35.968 136.397,37.593 135.666,39.465 C134.934,41.336 134.569,43.324 134.569,45.43 L134.569,45.569 C134.569,47.722 134.947,49.745 135.702,51.64 C136.457,53.534 137.507,55.184 138.853,56.587 C140.199,57.99 141.781,59.09 143.599,59.885 C145.416,60.681 147.365,61.078 149.442,61.078 Z M149.301,64.391 C146.623,64.391 144.166,63.886 141.935,62.875 C139.702,61.865 137.763,60.514 136.119,58.822 C134.473,57.13 133.194,55.156 132.278,52.901 C131.361,50.645 130.903,48.248 130.903,45.71 L130.903,45.569 C130.903,43.031 131.361,40.635 132.278,38.379 C133.194,36.124 134.486,34.127 136.155,32.387 C137.822,30.649 139.785,29.274 142.041,28.263 C144.296,27.253 146.764,26.748 149.442,26.748 C152.121,26.748 154.576,27.253 156.808,28.263 C159.04,29.274 160.978,30.625 162.624,32.317 C164.268,34.008 165.55,35.982 166.466,38.238 C167.383,40.494 167.841,42.891 167.841,45.429 L167.841,45.569 C167.841,48.107 167.383,50.504 166.466,52.76 C165.55,55.016 164.257,57.013 162.589,58.751 C160.92,60.49 158.958,61.865 156.703,62.875 C154.447,63.886 151.98,64.391 149.301,64.391 L149.301,64.391 Z" id="Fill-8" fill="#717576"></path>
            <path d="M187.649,64.18 C186.239,64.18 184.923,63.991 183.701,63.615 C182.479,63.239 181.41,62.641 180.494,61.817 C179.577,60.996 178.86,59.963 178.344,58.717 C177.826,57.472 177.568,56.002 177.568,54.311 L177.568,30.766 L172.352,30.766 L172.352,27.594 L177.568,27.594 L177.568,16.104 L181.022,16.104 L181.022,27.594 L193.64,27.594 L193.64,30.766 L181.022,30.766 L181.022,53.903 C181.022,56.483 181.692,58.289 183.032,59.32 C184.371,60.351 186.098,60.866 188.213,60.866 C189.105,60.866 189.95,60.778 190.75,60.6 C191.549,60.422 192.465,60.112 193.5,59.668 L193.5,62.911 C192.559,63.333 191.632,63.65 190.715,63.862 C189.799,64.074 188.777,64.18 187.649,64.18" id="Fill-9" fill="#717576"></path>
            <path d="M228.462,43.877 C228.321,42.044 227.955,40.294 227.367,38.626 C226.778,36.959 225.952,35.478 224.893,34.185 C223.832,32.893 222.525,31.858 220.97,31.083 C219.414,30.308 217.6,29.92 215.528,29.92 C213.737,29.92 212.065,30.272 210.509,30.978 C208.954,31.683 207.599,32.658 206.445,33.903 C205.291,35.149 204.336,36.629 203.583,38.344 C202.829,40.06 202.381,41.904 202.24,43.877 L228.462,43.877 Z M216.238,64.391 C213.883,64.391 211.634,63.943 209.491,63.052 C207.347,62.159 205.463,60.891 203.838,59.245 C202.212,57.601 200.929,55.627 199.988,53.323 C199.045,51.022 198.575,48.459 198.575,45.641 L198.575,45.499 C198.575,42.915 199.008,40.483 199.878,38.203 C200.747,35.924 201.946,33.938 203.473,32.246 C205,30.554 206.798,29.215 208.866,28.229 C210.933,27.242 213.189,26.748 215.633,26.748 C218.171,26.748 220.45,27.23 222.471,28.193 C224.491,29.157 226.218,30.484 227.652,32.176 C229.085,33.867 230.19,35.854 230.965,38.132 C231.741,40.413 232.128,42.891 232.128,45.569 L232.128,46.31 C232.128,46.475 232.104,46.697 232.058,46.98 L202.24,46.98 C202.381,49.224 202.877,51.212 203.724,52.941 C204.573,54.672 205.632,56.145 206.905,57.36 C208.177,58.576 209.626,59.501 211.252,60.132 C212.877,60.763 214.584,61.078 216.376,61.078 C219.202,61.078 221.593,60.538 223.549,59.456 C225.505,58.376 227.237,57.036 228.744,55.439 L231.141,57.554 C229.308,59.526 227.225,61.16 224.893,62.453 C222.561,63.744 219.677,64.391 216.238,64.391 L216.238,64.391 Z" id="Fill-10" fill="#717576"></path>
            <path d="M240.798,27.594 L244.252,27.594 L244.252,34.291 C245.474,32.176 247.118,30.39 249.187,28.933 C251.254,27.478 253.933,26.748 257.223,26.748 C259.479,26.748 261.498,27.112 263.285,27.84 C265.071,28.57 266.586,29.591 267.832,30.907 C269.076,32.223 270.017,33.786 270.652,35.595 C271.285,37.404 271.604,39.391 271.604,41.552 L271.604,63.545 L268.149,63.545 L268.149,42.186 C268.149,38.474 267.162,35.501 265.189,33.269 C263.214,31.037 260.395,29.92 256.73,29.92 C254.943,29.92 253.298,30.237 251.795,30.872 C250.29,31.506 248.976,32.387 247.848,33.515 C246.72,34.644 245.838,35.995 245.204,37.568 C244.57,39.143 244.252,40.871 244.252,42.75 L244.252,63.545 L240.798,63.545 L240.798,27.594" id="Fill-11" fill="#717576"></path>
            <path d="M293.173,64.18 C291.763,64.18 290.447,63.991 289.225,63.615 C288.003,63.239 286.935,62.641 286.018,61.817 C285.102,60.996 284.384,59.963 283.867,58.717 C283.35,57.472 283.092,56.002 283.092,54.311 L283.092,30.766 L277.876,30.766 L277.876,27.594 L283.092,27.594 L283.092,16.104 L286.546,16.104 L286.546,27.594 L299.164,27.594 L299.164,30.766 L286.546,30.766 L286.546,53.903 C286.546,56.483 287.216,58.289 288.556,59.32 C289.895,60.351 291.622,60.866 293.737,60.866 C294.629,60.866 295.475,60.778 296.275,60.6 C297.073,60.422 297.99,60.112 299.024,59.668 L299.024,62.911 C298.083,63.333 297.156,63.65 296.24,63.862 C295.323,64.074 294.301,64.18 293.173,64.18" id="Fill-12" fill="#717576"></path>
            <path d="M308.469,63.545 L311.923,63.545 L311.923,27.594 L308.469,27.594 L308.469,63.545 Z M308.046,18.218 L312.346,18.218 L312.346,13.496 L308.046,13.496 L308.046,18.218 Z" id="Fill-13" fill="#717576"></path>
            <path d="M335.256,61.078 C337.088,61.078 338.826,60.81 340.472,60.271 C342.117,59.733 343.562,58.983 344.807,58.024 C346.052,57.065 347.038,55.906 347.768,54.55 C348.496,53.192 348.861,51.695 348.861,50.057 L348.861,45.985 C347.356,45.611 345.594,45.248 343.574,44.898 C341.552,44.547 339.249,44.371 336.665,44.371 C332.859,44.371 329.933,45.132 327.889,46.653 C325.845,48.175 324.823,50.197 324.823,52.725 L324.823,52.864 C324.823,54.175 325.105,55.334 325.669,56.339 C326.233,57.346 326.996,58.199 327.96,58.901 C328.922,59.604 330.039,60.142 331.308,60.516 C332.577,60.891 333.892,61.078 335.256,61.078 Z M335.044,64.391 C333.353,64.391 331.684,64.155 330.039,63.687 C328.394,63.217 326.913,62.512 325.598,61.571 C324.283,60.632 323.212,59.456 322.391,58.047 C321.569,56.637 321.158,54.992 321.158,53.111 L321.158,52.972 C321.158,51.092 321.545,49.424 322.321,47.966 C323.096,46.51 324.164,45.287 325.528,44.301 C326.89,43.314 328.534,42.563 330.462,42.044 C332.389,41.528 334.527,41.27 336.877,41.27 C339.414,41.27 341.6,41.41 343.433,41.692 C345.265,41.975 347.051,42.351 348.789,42.82 L348.789,41.278 C348.789,37.633 347.743,34.9 345.653,33.077 C343.562,31.255 340.659,30.343 336.948,30.343 C334.738,30.343 332.718,30.614 330.885,31.154 C329.052,31.694 327.313,32.387 325.669,33.233 L324.4,30.198 C326.373,29.238 328.37,28.47 330.392,27.894 C332.411,27.318 334.667,27.03 337.159,27.03 C342.093,27.03 345.875,28.346 348.508,30.978 C350.951,33.421 352.174,36.805 352.174,41.128 L352.174,63.545 L348.789,63.545 L348.789,57.554 C348.179,58.399 347.439,59.233 346.57,60.056 C345.7,60.879 344.701,61.607 343.574,62.241 C342.446,62.875 341.164,63.394 339.732,63.792 C338.297,64.19 336.736,64.391 335.044,64.391 L335.044,64.391 Z" id="Fill-14" fill="#717576"></path>
            <polygon id="Fill-15" fill="#717576" points="363.662 63.545 367.117 63.545 367.117 12.085 363.662 12.085"></polygon>
            <path d="M379.805,63.545 L383.259,63.545 L383.259,27.594 L379.805,27.594 L379.805,63.545 Z M379.382,18.218 L383.682,18.218 L383.682,13.496 L379.382,13.496 L379.382,18.218 Z" id="Fill-16" fill="#717576"></path>
            <path d="M398.979,30.766 L393.762,30.766 L393.762,27.594 L398.979,27.594 L398.979,24.069 C398.979,19.935 400.035,16.808 402.151,14.693 C404.03,12.815 406.544,11.874 409.693,11.874 C410.774,11.874 411.738,11.944 412.583,12.085 C413.429,12.226 414.25,12.438 415.05,12.719 L415.05,15.962 C414.016,15.634 413.1,15.399 412.301,15.258 C411.501,15.117 410.632,15.046 409.693,15.046 C404.852,15.046 402.432,18.078 402.432,24.14 L402.432,27.594 L414.98,27.594 L414.98,30.766 L402.432,30.766 L402.432,63.545 L398.979,63.545 L398.979,30.766" id="Fill-17" fill="#717576"></path>
            <path d="M448.393,43.877 C448.25,42.044 447.885,40.294 447.297,38.626 C446.707,36.959 445.882,35.478 444.823,34.185 C443.762,32.893 442.455,31.858 440.9,31.083 C439.344,30.308 437.531,29.92 435.457,29.92 C433.666,29.92 431.994,30.272 430.439,30.978 C428.884,31.683 427.53,32.658 426.375,33.903 C425.221,35.149 424.266,36.629 423.513,38.344 C422.759,40.06 422.311,41.904 422.17,43.877 L448.393,43.877 Z M436.168,64.391 C433.813,64.391 431.564,63.943 429.42,63.052 C427.277,62.159 425.393,60.891 423.768,59.245 C422.142,57.601 420.86,55.627 419.917,53.323 C418.975,51.022 418.504,48.459 418.504,45.641 L418.504,45.499 C418.504,42.915 418.938,40.483 419.809,38.203 C420.677,35.924 421.875,33.938 423.404,32.246 C424.93,30.554 426.728,29.215 428.796,28.229 C430.864,27.242 433.119,26.748 435.563,26.748 C438.101,26.748 440.38,27.23 442.401,28.193 C444.421,29.157 446.148,30.484 447.582,32.176 C449.015,33.867 450.119,35.854 450.895,38.132 C451.67,40.413 452.058,42.891 452.058,45.569 L452.058,46.31 C452.058,46.475 452.034,46.697 451.988,46.98 L422.17,46.98 C422.311,49.224 422.807,51.212 423.655,52.941 C424.502,54.672 425.562,56.145 426.834,57.36 C428.107,58.576 429.556,59.501 431.182,60.132 C432.807,60.763 434.515,61.078 436.306,61.078 C439.132,61.078 441.524,60.538 443.48,59.456 C445.436,58.376 447.167,57.036 448.675,55.439 L451.072,57.554 C449.238,59.526 447.155,61.16 444.823,62.453 C442.492,63.744 439.607,64.391 436.168,64.391 L436.168,64.391 Z" id="Fill-18" fill="#717576"></path>
        </g>
    </g>
</svg>