<?xml version="1.0" encoding="UTF-8"?>
<svg width="75px" height="75px" viewBox="0 0 75 75" version="1.1" xmlns="http://www.w3.org/2000/svg" xmlns:xlink="http://www.w3.org/1999/xlink">
    <!-- Generator: Sketch 42 (36781) - http://www.bohemiancoding.com/sketch -->
    <title>PL_Logo Copy</title>
    <desc>Created with Sketch.</desc>
    <defs></defs>
    <g id="Symbols" stroke="none" stroke-width="1" fill="none" fill-rule="evenodd">
        <g id="Footer/Large" transform="translate(-170.000000, -13.000000)">
            <g id="Group-15-Copy-2" transform="translate(170.000000, 13.000000)">
                <g id="PL_Logo-Copy">
                    <path d="M74.7182692,37.3586538 C74.7182692,57.9913462 57.9913462,74.7182692 37.3586538,74.7182692 C16.7259615,74.7182692 0,57.9913462 0,37.3586538 C0,16.7259615 16.7259615,0 37.3586538,0 C57.9913462,0 74.7182692,16.7259615 74.7182692,37.3586538 Z" id="Fill-1" fill="#EE7548"></path>
                    <path d="M12.0361538,50.2130769 L12.0361538,50.2130769 C10.19,48.365 10.19,45.3448077 12.0361538,43.4976923 L37.3736538,18.1601923 C39.2198077,16.3140385 42.2419231,16.3140385 44.0880769,18.1601923 C45.9351923,20.0063462 45.9351923,23.0294231 44.0880769,24.8746154 L18.7515385,50.2130769 C16.9044231,52.0592308 13.8823077,52.0592308 12.0361538,50.2130769" id="Fill-3" fill="#FEFEFE"></path>
                    <path d="M30.5992308,50.2281731 L30.5684615,50.1974038 C28.73,48.3599038 28.73,45.35125 30.5684615,43.51375 L46.6261538,27.4541346 C48.4646154,25.6156731 51.4723077,25.6156731 53.3107692,27.4541346 L53.3415385,27.4858654 C55.18,29.3243269 55.18,32.3320192 53.3415385,34.1695192 L37.2838462,50.2281731 C35.4453846,52.0656731 32.4376923,52.0656731 30.5992308,50.2281731" id="Fill-5" fill="#FEFEFE"></path>
                    <path d="M49.2915385,50.2356731 L49.2453846,50.1885577 C47.4117308,48.3558654 47.4117308,45.3549038 49.2453846,43.52125 L55.9761538,36.7904808 C57.8098077,34.9549038 60.8117308,34.9549038 62.6453846,36.7904808 L62.6915385,36.8347115 C64.5261538,38.6702885 64.5261538,41.67125 62.6915385,43.5049038 L55.9607692,50.2356731 C54.1271154,52.0683654 51.1261538,52.0693269 49.2915385,50.2356731" id="Fill-7" fill="#FEFEFE"></path>
                </g>
            </g>
        </g>
    </g>
</svg>