<?xml version="1.0" encoding="UTF-8"?>
<svg width="42px" height="42px" viewBox="0 0 42 42" version="1.1" xmlns="http://www.w3.org/2000/svg" xmlns:xlink="http://www.w3.org/1999/xlink">
    <!-- Generator: Sketch 43 (38999) - http://www.bohemiancoding.com/sketch -->
    <title>PL_Logo Copy</title>
    <desc>Created with Sketch.</desc>
    <defs></defs>
    <g id="Symbols" stroke="none" stroke-width="1" fill="none" fill-rule="evenodd">
        <g id="PLHeader/DesktopMenu" transform="translate(-8.000000, -9.000000)">
            <g id="PL-Header_Desktop">
                <g id="Logo" transform="translate(8.000000, 9.000000)">
                    <g id="PL_Logo-Copy">
                        <path d="M41.8422308,20.9208462 C41.8422308,32.4751538 32.4751538,41.8422308 20.9208462,41.8422308 C9.36653846,41.8422308 0,32.4751538 0,20.9208462 C0,9.36653846 9.36653846,0 20.9208462,0 C32.4751538,0 41.8422308,9.36653846 41.8422308,20.9208462 Z" id="Fill-1" fill="#EE7548"></path>
                        <path d="M6.74024615,28.1193231 L6.74024615,28.1193231 C5.7064,27.0844 5.7064,25.3930923 6.74024615,24.3587077 L20.9292462,10.1697077 C21.9630923,9.13586154 23.6554769,9.13586154 24.6893231,10.1697077 C25.7237077,11.2035538 25.7237077,12.8964769 24.6893231,13.9297846 L10.5008615,28.1193231 C9.46647692,29.1531692 7.77409231,29.1531692 6.74024615,28.1193231" id="Fill-3" fill="#FEFEFE"></path>
                        <path d="M17.1355692,28.1277769 L17.1183385,28.1105462 C16.0888,27.0815462 16.0888,25.3967 17.1183385,24.3677 L26.1106462,15.3743154 C27.1401846,14.3447769 28.8244923,14.3447769 29.8540308,15.3743154 L29.8712615,15.3920846 C30.9008,16.4216231 30.9008,18.1059308 29.8712615,19.1349308 L20.8789538,28.1277769 C19.8494154,29.1567769 18.1651077,29.1567769 17.1355692,28.1277769" id="Fill-5" fill="#FEFEFE"></path>
                        <path d="M27.6032615,28.1319769 L27.5774154,28.1055923 C26.5505692,27.0792846 26.5505692,25.3987462 27.5774154,24.3719 L31.3466462,20.6026692 C32.3734923,19.5747462 34.0545692,19.5747462 35.0814154,20.6026692 L35.1072615,20.6274385 C36.1346462,21.6553615 36.1346462,23.3359 35.1072615,24.3627462 L31.3380308,28.1319769 C30.3111846,29.1582846 28.6306462,29.1588231 27.6032615,28.1319769" id="Fill-7" fill="#FEFEFE"></path>
                    </g>
                </g>
            </g>
        </g>
    </g>
</svg>