<?xml version="1.0" standalone="no"?>
<!DOCTYPE svg PUBLIC "-//W3C//DTD SVG 20010904//EN"
 "http://www.w3.org/TR/2001/REC-SVG-20010904/DTD/svg10.dtd">
<svg version="1.0" xmlns="http://www.w3.org/2000/svg"
 width="16.000000pt" height="16.000000pt" viewBox="0 0 16.000000 16.000000"
 preserveAspectRatio="xMidYMid meet">
<metadata>
Created by potrace 1.11, written by Peter Selinger 2001-2013
</metadata>
<g transform="translate(0.000000,16.000000) scale(0.002286,-0.002286)"
fill="#000000" stroke="none">
<path d="M3278 6995 c-2 -1 -39 -5 -83 -9 -44 -3 -96 -8 -115 -11 -19 -2 -55
-6 -80 -9 -25 -3 -70 -10 -100 -16 -30 -6 -68 -13 -85 -16 -203 -35 -462 -116
-699 -216 -769 -326 -1415 -946 -1774 -1700 -27 -57 -61 -134 -77 -173 -15
-38 -33 -83 -40 -100 -11 -25 -25 -66 -30 -85 -1 -3 -5 -14 -9 -25 -41 -108
-107 -362 -131 -505 -29 -176 -33 -204 -42 -325 -10 -118 -9 -488 0 -590 28
-299 82 -555 173 -823 113 -333 256 -610 463 -901 553 -775 1374 -1279 2321
-1426 26 -4 167 -20 260 -30 66 -7 423 -7 500 0 143 13 180 17 245 26 39 5 77
11 85 13 8 1 33 6 55 10 92 16 197 41 315 73 133 37 369 119 385 134 5 5 15 9
23 9 11 0 309 144 352 170 8 5 45 27 81 49 257 153 460 312 684 536 147 147
203 211 325 375 292 392 486 807 600 1285 16 66 31 140 35 165 3 25 8 52 10
60 8 26 25 158 31 233 3 40 7 83 10 97 5 29 5 428 0 480 -2 19 -7 67 -10 105
-12 118 -17 156 -27 209 -5 28 -12 69 -15 91 -12 81 -76 331 -119 460 -244
730 -742 1382 -1375 1798 -47 31 -89 60 -95 64 -36 31 -320 177 -470 243 -209
92 -487 176 -730 220 -128 23 -135 24 -235 35 -36 4 -78 9 -95 12 -32 5 -512
13 -517 8z"/>
</g>
</svg>
